<?xml version="1.0" standalone="no"?>
<!DOCTYPE svg PUBLIC "-//W3C//DTD SVG 1.0//EN" "http://www.w3.org/TR/2001/REC-SVG-20010904/DTD/svg10.dtd">
<svg xmlns="http://www.w3.org/2000/svg" xmlns:xlink="http://www.w3.org/1999/xlink" id="body_1" width="19" height="19">

<g transform="matrix(0.7916667 0 0 0.7916667 0 0)">
    <path d="M1.025 11.893C 0.92499995 12.186 0.955 12.4539995 1.0339999 12.563C 1.1119999 12.672999 1.257 12.823 1.5839999 12.835C 1.9109999 12.847 2.281 12.668 2.281 12.668L2.281 12.668L2.145 13.448C 2.137 13.456 1.745 13.5859995 1.265 13.582C 0.604 13.578 -0.055999994 13.264999 0.0039999485 12.33C 0.009999949 12.249 0.056999948 11.932 0.13199995 11.757C 0.32097733 11.251847 0.7265141 10.858055 1.237 10.684C 1.9070001 10.448 2.6269999 10.668 2.6269999 10.668L2.6269999 10.668L2.4859998 11.485001C 2.4859998 11.485001 2.2389998 11.282001 1.7309998 11.331C 1.6183107 11.348641 1.5092286 11.384439 1.4079998 11.437C 1.229698 11.538054 1.0937401 11.699926 1.0249997 11.893001L1.0249997 11.893001L1.025 11.893zM5.005 12.4869995C 4.925 12.966 4.559 13.584 3.6080003 13.584C 2.6570003 13.584 2.5060003 12.966 2.5920002 12.4869995C 2.8090003 11.353 3.9860003 11.41 3.9860003 11.41C 3.9860003 11.41 5.181 11.353 5.0060005 12.4869995zM4.118 12.209999C 4.075 12.034999 3.877 12.040999 3.877 12.040999L3.877 12.040999L3.877 12.042C 3.877 12.042 3.664 12.025 3.5470002 12.252C 3.4110003 12.566 3.4720001 12.766 3.4770002 12.783999C 3.5200002 12.959 3.7170002 12.952999 3.7170002 12.952999L3.7170002 12.952999L3.7170002 12.951999C 3.7170002 12.951999 3.9310002 12.968999 4.0470004 12.741999C 4.1830006 12.427999 4.122 12.227999 4.1170006 12.209999zM7.9449997 10.462999L7.411 13.532999L6.5429997 13.532999L6.586 13.287999C 6.422699 13.482677 6.1800513 13.592972 5.926 13.587999C 5.399 13.587999 5.113 13.192999 5.219 12.584999C 5.351 11.824999 5.869 11.384999 6.357 11.384999C 6.591 11.384999 6.7679996 11.483999 6.869 11.659999L6.869 11.659999L6.869 11.657999L7.077 10.462999zM6.515 12.039999C 6.31 12.035999 6.1549997 12.281999 6.113 12.519999C 6.073 12.757998 6.108 12.946999 6.357 12.949999C 6.507 12.949999 6.683 12.861999 6.751 12.519999C 6.779 12.356998 6.801 12.039999 6.515 12.039999zM10.069 11.483999C 10.069 11.483999 9.81 11.309999 9.371 11.483999C 9.182 11.556999 8.997001 11.791999 8.997001 11.791999L8.997001 11.791999L9.055 11.456999L8.188001 11.456999L7.9280005 12.949999L8.798 12.949999L8.898001 12.376999L8.900001 12.357999C 8.9140005 12.286999 8.978001 12.039999 9.205001 12.039999C 9.470001 12.039999 9.385001 12.373999 9.385001 12.373999L9.385001 12.373999L9.187001 13.532999L10.053001 13.532999L10.290002 12.169999C 10.380002 11.6449995 10.070002 11.483999 10.070002 11.483999zM8.702001 11.145999C 8.922001 11.145999 9.1 10.989999 9.1 10.796999C 9.1 10.603999 8.922 10.447999 8.702001 10.447999C 8.482 10.447999 8.304001 10.603999 8.304001 10.797999C 8.304001 10.988999 8.482001 11.145999 8.702001 11.145999zM12.425001 11.291999C 13.030001 11.291999 13.243001 11.449999 13.243001 11.449999L13.243001 11.449999L13.377001 10.681999C 12.972001 10.579999 11.034 10.202999 10.595001 12.1449995C 10.331001 13.664999 11.938002 13.582999 11.938002 13.582999C 11.938002 13.582999 12.572001 13.582999 13.114001 13.338999L13.114001 13.338999L13.303001 12.248999L12.418001 12.245998L12.318001 12.845999C 12.318001 12.845999 11.768001 12.992999 11.565001 12.580998C 11.488001 12.428998 11.540001 12.131998 11.540001 12.131998C 11.540001 12.131998 11.657001 11.291998 12.425001 11.291998zM15.635001 12.323998L15.425001 13.532998L14.637001 13.532998L14.692001 13.2179985C 14.692001 13.2179985 14.432001 13.583999 13.986001 13.583999C 13.336001 13.583999 13.4660015 12.928999 13.4660015 12.928999C 13.4660015 12.928999 13.519002 12.367999 14.218001 12.249999L14.218001 12.249999L14.864001 12.178999C 14.864001 12.178999 14.943002 11.937999 14.561001 11.937999C 14.179 11.937999 13.798 12.144999 13.798 12.144999L13.798 12.144999L13.898001 11.567999C 13.898001 11.567999 14.4140005 11.380999 14.893001 11.404999C 15.903001 11.409999 15.635 12.323998 15.635 12.323998zM14.795001 12.581999C 14.795001 12.581999 14.637001 12.614999 14.495001 12.626999C 14.27 12.660999 14.242001 12.808999 14.238001 12.829999C 14.200001 13.049999 14.434001 13.019999 14.434001 13.019999C 14.434001 13.019999 14.682001 13.028998 14.772001 12.709998zM19.085001 11.403999C 18.573002 11.403999 18.319 11.768 18.319 11.768C 18.319 11.768 18.221 11.403999 17.749 11.403999C 17.278 11.403999 16.993 11.78 16.993 11.78L16.993 11.78L17.049 11.459L16.178999 11.459L15.817999 13.532999L16.688 13.532999L16.897 12.331999C 16.897 12.331999 16.967 12.038999 17.199999 12.038999C 17.432 12.038999 17.376 12.335999 17.376 12.335999L17.376 12.335999L17.168 13.532999L18.039999 13.532999L18.247 12.339999C 18.247 12.339999 18.305 12.039 18.548 12.039C 18.792 12.039 18.722 12.348 18.722 12.348L18.722 12.348L18.512001 13.532L19.390001 13.532L19.631 12.143999C 19.631 12.1449995 19.764 11.403999 19.085001 11.403999zM23.499 10.9869995C 23.499 11.007 23.509 11.283999 23.016 11.3689995C 22.158 11.478999 22.056002 11.943999 22.046001 11.999C 22.034002 12.054 22.051 12.162 22.014002 12.349C 21.993488 12.48015 21.973457 12.611689 21.954002 12.743L21.954002 12.743L20.62 12.743C 20.62 12.743 20.661001 13.036 21.032001 13.036C 21.403002 13.036 21.662 12.92 21.662 12.92L21.662 12.92L21.575 13.456C 21.575 13.456 21.315 13.59 20.747002 13.59C 20.657001 13.59 19.632002 13.588 19.821001 12.499001C 19.912 11.975 20.378 11.404 21.189001 11.404C 21.569 11.402 21.589 11.537001 21.956001 11.537001C 22.266 11.529 22.526001 11.232 22.526001 11.232C 22.526001 11.232 22.62 11.082001 22.696001 10.912001C 22.756 10.830001 22.864 10.654 23.210001 10.690001C 23.500002 10.743001 23.500002 10.967001 23.500002 10.987zM21.029001 11.933C 20.759 11.933 20.696001 12.29 20.696001 12.29L20.696001 12.29L21.226002 12.29C 21.226002 12.29 21.300001 11.933 21.029001 11.933zM23.821001 10.41C 23.757006 10.40993 23.69784 10.444032 23.665821 10.499443C 23.633802 10.554854 23.633802 10.623145 23.665821 10.678556C 23.69784 10.733968 23.757006 10.768069 23.821001 10.768C 23.919785 10.767892 23.999807 10.687782 23.999807 10.589C 23.999807 10.490217 23.919785 10.410108 23.821001 10.41z" stroke="none" fill="#000000" fill-rule="nonzero" />
</g>
</svg>